<svg xmlns="http://www.w3.org/2000/svg" viewBox="0 0 1200 1200" role="img" aria-labelledby="title desc">
  <title id="title">AGD LAW AI gold hero logo</title>
  <desc id="desc">Large gold AGD LAW AI logo artwork for the landing page hero section.</desc>
  <defs>
    <linearGradient id="gold-bg" x1="0" y1="0" x2="1" y2="1">
      <stop offset="0" stop-color="#a9712c"/>
      <stop offset="0.48" stop-color="#c89142"/>
      <stop offset="1" stop-color="#8f622a"/>
    </linearGradient>
    <linearGradient id="metal" x1="0" y1="0" x2="1" y2="1">
      <stop offset="0" stop-color="#ffffff"/>
      <stop offset="0.55" stop-color="#fff8eb"/>
      <stop offset="1" stop-color="#d9b674"/>
    </linearGradient>
    <filter id="soft-shadow" x="-20%" y="-20%" width="140%" height="140%">
      <feDropShadow dx="0" dy="6" stdDeviation="4" flood-color="#5b3a16" flood-opacity="0.35"/>
    </filter>
  </defs>
  <rect width="1200" height="1200" fill="url(#gold-bg)"/>
  <g opacity="0.12">
    <path d="M0 190 C220 130 310 250 520 190 S860 90 1200 160 V0 H0Z" fill="#fff"/>
    <path d="M0 1040 C260 1120 420 930 660 1010 S940 1150 1200 1040 V1200 H0Z" fill="#4a2a0c"/>
  </g>
  <g filter="url(#soft-shadow)" fill="url(#metal)">
    <path d="M270 590 385 320 500 590h-70l-45-112-45 112z"/>
    <path d="M620 315c53 0 96 18 130 54l-44 43c-21-23-49-35-86-35-69 0-118 50-118 113 0 67 49 115 116 115 51 0 89-25 101-69h-93v-58h162v38c0 87-67 151-170 151-107 0-188-76-188-177 0-100 82-175 190-175z"/>
    <path d="M825 333h93c103 0 172 65 172 159s-69 159-172 159h-93zm75 64v190h18c58 0 96-38 96-95s-38-95-96-95z"/>
  </g>
  <g fill="none" stroke="url(#metal)" stroke-width="28" stroke-linecap="round" filter="url(#soft-shadow)">
    <path d="M238 682c88 35 274-54 355-12 33 17 42 38 52 67"/>
    <path d="M962 682c-88 35-274-54-355-12-33 17-42 38-52 67"/>
    <path d="M315 725h260"/>
    <path d="M625 725h260"/>
  </g>
  <path d="M600 724 632 756 600 788 568 756Z" fill="url(#metal)" filter="url(#soft-shadow)"/>
  <g text-anchor="middle" fill="url(#metal)" filter="url(#soft-shadow)">
    <text x="600" y="900" font-family="Arial, Helvetica, sans-serif" font-size="88" font-weight="800" letter-spacing="6">AGD LAW AI</text>
    <text x="600" y="985" font-family="Noto Sans Arabic, Arial, sans-serif" font-size="50" font-weight="600">الذكاء الاصطناعي للمحاماة والعقود</text>
  </g>
</svg>
