<svg width="1024" height="1024" viewBox="0 0 1024 1024" xmlns="http://www.w3.org/2000/svg" role="img" aria-labelledby="title desc">
  <title id="title">AGD LAW AI</title>
  <desc id="desc">AGD LAW AI logo for Arabic contract intelligence</desc>
  <rect width="1024" height="1024" fill="#b9823a"/>
  <rect width="1024" height="1024" fill="url(#grain)" opacity=".18"/>
  <defs>
    <filter id="shadow" x="-20%" y="-20%" width="140%" height="140%">
      <feDropShadow dx="0" dy="8" stdDeviation="7" flood-color="#704713" flood-opacity=".45"/>
    </filter>
    <pattern id="grain" width="5" height="5" patternUnits="userSpaceOnUse">
      <path d="M0 0h1v1H0zM3 2h1v1H3z" fill="#fff" opacity=".22"/>
    </pattern>
  </defs>
  <g filter="url(#shadow)" fill="#fff">
    <path d="M229 495 333 244h22l103 251h-55l-58-147-61 147h-55Zm312 6c-44 0-80-13-108-40-27-27-41-62-41-105 0-42 14-77 43-104 28-27 64-41 108-41 39 0 72 12 98 36l-34 36c-17-16-38-24-64-24-27 0-50 9-68 27-18 19-27 43-27 73 0 31 9 56 27 75 19 18 43 28 73 28 22 0 41-5 56-14v-54h-70v-43h122v125c-29 19-65 29-115 29Zm169-6V221h91c43 0 78 12 105 37 26 25 39 58 39 99 0 42-13 75-39 100-27 25-62 38-105 38h-91Zm51-45h38c28 0 51-8 68-25 17-16 25-39 25-68 0-28-8-50-25-66-17-17-40-25-68-25h-38v184Z"/>
    <path d="M697 313h91l55 55v116H697V313Zm19 19v133h108v-84h-49v-49h-59Zm78 14v16h17l-17-16Zm-73 56h76v15h-76v-15Zm0-36h45v15h-45v-15Zm0 72h76v15h-76v-15Z" opacity=".92"/>
    <path d="M180 589c84 34 203-33 295-35 49-1 79 20 98 61 17-42 48-63 97-63 92 1 213 70 296 35-38 36-116 32-206 16-88-16-151-27-172 43h-30c-21-70-83-58-171-42-90 16-169 21-207-15Z"/>
    <path d="M240 663h264c12 0 22 10 22 22s-10 22-22 22H240v-44Zm278 61 55-55 55 55-55 55-55-55Zm124-39c0-12 10-22 22-22h264v44H664c-12 0-22-10-22-22Z"/>
    <text x="512" y="855" text-anchor="middle" font-family="Arial, Helvetica, sans-serif" font-size="72" font-weight="800" letter-spacing="6">AGD LAW AI</text>
    <text x="512" y="925" text-anchor="middle" font-family="Arial, Helvetica, sans-serif" font-size="38" font-weight="500">الذكاء الاصطناعي للمحاماة والعقود</text>
  </g>
</svg>
